<?xml version="1.0" encoding="utf-8"?>
<!-- Generator: Adobe Illustrator 24.0.2, SVG Export Plug-In . SVG Version: 6.00 Build 0)  -->
<svg version="1.1" id="Capa_1" xmlns="http://www.w3.org/2000/svg" xmlns:xlink="http://www.w3.org/1999/xlink" x="0px" y="0px"
	 viewBox="0 0 595.28 841.89" enable-background="new 0 0 595.28 841.89" xml:space="preserve" fill="white">
<path d="M172.78,367.75c-14.13,18.69-10.78,41.49,3.61,54.73c-2.46,0-4.22,0.04-5.98-0.01c-5.24-0.14-10.52,0.02-15.71-0.57
	c-7.95-0.9-11.14-4.83-11.11-12.73c0.13-32.25,0.26-64.49,0.38-96.74c0.04-10.87,0.05-21.75,0.08-32.62
	c0.03-12.78,4.91-19.12,17.48-21.18c31.04-5.07,62.03-10.62,93.23-14.43c32.74-4,65.57-2.55,98.2,2.86
	c24.75,4.1,49.59,7.65,74.36,11.63c14.74,2.37,20.86,9.9,20.82,24.89c-0.12,40.62-0.23,81.24-0.38,121.86
	c-0.01,2.87-0.11,5.76-0.43,8.6c-0.49,4.33-3.24,7.25-7.55,7.47c-5.58,0.29-11.19,0.07-17.55,0.07c0.95-1.36,1.5-2.23,2.12-3.04
	c11.35-14.88,12.94-34.29,3.97-48.8c-0.26-0.43-0.47-0.91-0.82-1.25c-3.48-3.41-5.1-6.52-1.92-11.64c2.41-3.88-0.01-8.36-3.53-11.27
	c-9.3-7.7-20.15-10.73-32.1-9.82c-3.33,0.26-6.61,1.03-10.37,1.65c-1.14-2.36-2.36-4.9-3.81-7.91c1.88-0.37,3.39-0.87,4.93-0.94
	c2.88-0.14,3.76-1.46,3.59-4.31c-0.47-7.98-0.75-15.98-0.97-23.97c-0.06-2.33-0.85-3.53-3.28-3.37c-5.7,0.37-11.39,0.8-17.1,1
	c-1.11,0.04-2.38-0.66-3.36-1.33c-2.13-1.46-4.12-3.12-6.17-4.7c-0.67-0.51-1.54-0.87-2.01-1.52c-3.01-4.2-5.58-8.77-8.97-12.61
	c-3.39-3.84-7.91-6.27-13.38-4.66c-5.2,1.54-7.72,5.33-7.75,10.65c-0.02,2.33-1.38,2.81-3.1,2.7c-2.98-0.2-3.81,1.27-3.96,3.96
	c-0.21,3.86-0.54,7.74-1.22,11.54c-0.26,1.42-1.37,3.3-2.59,3.84c-13.05,5.77-25.08,12.92-34.55,23.86
	c-0.45,0.52-1.18,0.92-1.85,1.09c-3.42,0.88-6.98,1.33-10.26,2.55c-5.27,1.95-10.07,1.64-15.16-0.81
	c-5.03-2.43-10.32-4.43-15.65-6.09c-10.29-3.2-15.26-0.97-20.57,8.42c-0.39,0.68-1.82,1.26-2.64,1.14c-9-1.39-17.64-0.44-26.03,3.2
	c-1.19,0.51-2.83,0.21-4.21-0.01c-4.03-0.65-8.02-1.82-12.06-2.08c-4.71-0.3-8.52,2.52-9.96,6.48c-1.55,4.27-0.7,10.02,3.24,12.15
	C166.03,358.55,168.52,363.73,172.78,367.75z"/>
<path d="M167.17,543.96c-11.18-11.68-21.89-23.39-24.6-40.55c102.42,0,204.46,0,307.41,0c-8.72,13.52-17.16,26.61-25.85,40.09
	c-8.31-8.15-17.78-7.39-27.27-4.37c-22.35,7.09-44.83,13.85-66.83,21.91c-25.67,9.4-50.51,9.99-75.52-2.03
	c-21.34-10.26-43.63-17.94-67.22-21.21c-6.4-0.88-12.33,0.91-17.73,4.42C168.84,542.68,168.17,543.22,167.17,543.96z"/>
<path d="M418.83,547.82c-5.08,2.36-10.15,4.73-15.23,7.08c-26.17,12.12-52.33,24.27-78.53,36.33c-18.41,8.48-36.94,8.4-55.53,0.51
	c-23.44-9.95-46.92-19.79-70.29-29.89c-8.24-3.56-16.22-7.73-24.29-11.67c-1.21-0.59-2.29-1.42-3.45-3.12c2.2-0.34,4.38-0.88,6.6-1
	c12.76-0.72,24.71,2.83,36.44,7.28c19.37,7.33,38.72,14.69,58.04,22.15c13.93,5.38,27.85,5.21,41.71,0.06
	c22.7-8.44,45.32-17.08,68.01-25.55c10.66-3.98,21.59-6.24,33.03-3.99c1.2,0.24,2.36,0.61,3.54,0.93
	C418.86,547.23,418.85,547.52,418.83,547.82z"/>
<path d="M173.24,228.8c0-3.33,0-6.29,0-9.73c9.78-1.76,19.42-3.77,29.14-5.21c22.6-3.34,45.2-6.67,67.87-9.5
	c23.31-2.91,46.56-2.45,69.76,1.91c18.76,3.53,37.65,6.41,56.52,9.34c3.48,0.54,4.8,1.8,4.31,5.24c-0.22,1.56-0.04,3.17-0.04,5.22
	c-9.04-1.45-17.51-2.86-25.99-4.17c-19.36-3.01-38.63-7.01-58.11-8.63c-15.07-1.25-30.48-0.38-45.58,1.11
	c-21.6,2.12-43.08,5.53-64.58,8.66C195.58,224.62,184.7,226.79,173.24,228.8z"/>
<path d="M362.24,606.63c5.48-2.09,10.58-4.02,15.67-5.97c14.09-5.4,28.4-10.23,41.15-18.71c26.67-17.74,42.39-42.67,48.22-73.77
	c2.08-11.1,2.32-22.57,3.08-33.89c0.2-2.94,0.95-3.88,3.88-3.84c6.07,0.09,6.15-0.05,6.05,6.07c-0.47,28.2-5.83,55.06-21.5,79.15
	c-15.09,23.2-36.3,38.5-61.86,48.23c-8.63,3.29-17.33,6.39-25.93,9.77c-2.68,1.06-4.41,0.91-5.67-1.91
	C364.57,610.11,363.45,608.62,362.24,606.63z"/>
<path d="M366.53,366.15c0.36,0.58,0.73,1.22,1.14,1.83c3.34,4.93,4.43,9,0.65,15.21c-8.14,13.35,0.21,28.7,16.5,31.95
	c9,1.79,17.32-0.19,23.58-7.21c6.25-7,7.37-15.48,4.68-24.24c-2.61-8.49-9.18-12.85-17.66-13.26c-4.76-0.23-6.51-2.47-7.81-6.19
	c-0.32-0.93-0.75-1.81-1.5-3.6c4,0,7.55-0.39,10.98,0.07c16.18,2.18,27.81,14.11,28.49,28.93c0.81,17.52-9.69,32.54-25.53,36.53
	c-22.18,5.58-43.29-8.27-46.19-30.72c-1.52-11.76,3.34-21.4,11.86-29.33C365.84,366,366.18,366.13,366.53,366.15z"/>
<path d="M210.66,599.75c-0.21,0.83-0.22,1.09-0.33,1.3c-4.01,7.34-3.97,7.22-11.72,4.37c-16.24-5.99-31.87-13.14-45.5-24.02
	c-23.27-18.57-37.68-42.52-41.79-72.02c-1.64-11.8-1.14-23.89-1.68-35.85c-0.11-2.33,0.86-3.18,3.07-3.02
	c0.99,0.07,2.01,0.11,3-0.01c3.02-0.37,3.72,1.03,3.83,3.88c0.47,12.45,0,25.1,2.08,37.3c5,29.38,21.23,51.71,45.97,68.12
	c11.88,7.88,25.11,12.74,38.2,17.96C207.37,598.4,208.96,599.06,210.66,599.75z"/>
<path d="M109.66,382.13c0-26.24-0.01-52.48,0.04-78.71c0-1.53,0.33-4.29,0.84-4.37c2.66-0.42,5.43-0.28,8.13,0
	c0.37,0.04,0.77,1.94,0.78,2.99c0.07,6.87,0.03,13.74,0.03,20.62c-0.01,45.98,0,91.96-0.05,137.94c0,1.77-0.19,4.85-0.93,5.06
	c-2.43,0.67-5.17,0.5-7.72,0.18c-0.51-0.06-1.05-2.26-1.05-3.47c-0.06-17.87-0.04-35.73-0.03-53.6c0-8.87,0-17.74,0-26.61
	C109.67,382.13,109.66,382.13,109.66,382.13z"/>
<path d="M480.31,382.62c0,26.49,0.02,52.97-0.05,79.46c0,1.31-0.64,3.7-1.17,3.76c-2.66,0.29-5.42,0.12-8.06-0.33
	c-0.39-0.07-0.54-2.48-0.54-3.81c0.01-29.48,0.04-58.97,0.09-88.45c0.04-23.36,0.07-46.72,0.19-70.09c0.01-1.46,0.54-4.07,1.18-4.18
	c2.51-0.45,5.19-0.26,7.75,0.08c0.4,0.05,0.72,2.19,0.73,3.36c0.03,14.62-0.01,29.23-0.02,43.85c-0.01,12.12,0,24.24,0,36.36
	C480.37,382.62,480.34,382.62,480.31,382.62z"/>
<path d="M210.22,609.74c1.72-2.81,3.31-5.42,5.06-8.27c9.47,3.77,18.69,7.54,27.98,11.11c11.16,4.29,22.2,9.07,33.64,12.45
	c14.12,4.17,28.32,3.2,42.18-2.3c11.48-4.55,23.19-8.52,34.67-13.05c3.38-1.33,5.29-0.94,6.67,2.4c0.56,1.36,1.49,2.57,2.5,4.26
	c-1.38,0.64-2.52,1.26-3.73,1.72c-12.71,4.83-25.4,9.71-38.15,14.43c-19.55,7.22-38.96,5.99-58.13-1.51
	c-16.61-6.5-33.16-13.16-49.73-19.76C212.29,610.84,211.44,610.35,210.22,609.74z"/>
<path d="M346.5,327.95c-5.39-0.45-6.78,3.16-8.52,6.45c-3.35,6.34-7.48,10.75-15.79,10.74c-10.07-0.01-20.14,1.76-30.23,2.37
	c-3.13,0.19-6.48-0.49-9.48-1.52c-3.32-1.14-4.14-3.81-2.58-6.99c0.87-1.75,2.09-3.43,3.48-4.81c11.72-11.62,25.62-19.4,41.72-23.07
	c7.78-1.77,11.89,0.19,15.84,7.08C342.67,321.2,344.38,324.22,346.5,327.95z M290.85,337.63c0.25,0.51,0.51,1.03,0.76,1.54
	c1.57-0.14,3.19-0.1,4.7-0.46c8.73-2.07,17.45-4.21,26.16-6.38c1.31-0.33,3.09-0.58,3.71-1.5c1.08-1.6,1.43-3.7,2.08-5.6
	c-1.56-0.15-3.28-0.81-4.66-0.37c-9.27,2.92-18.51,5.98-27.67,9.23C294.05,334.77,292.53,336.43,290.85,337.63z"/>
<path d="M193.09,397.8c1.42,0.7,3.32,1.04,4.18,2.17c2.57,3.4,5.8,4.9,9.98,4.9c9.87,0,19.75,0.28,29.62,0.11
	c7.58-0.13,14.34,1.68,20.04,6.79c3.34,2.99,7.05,4.04,11.6,3.93c13.37-0.31,26.74-0.15,40.12-0.19
	c8.68-0.03,15.38-3.12,19.35-11.45c4.29-9.01,9.1-17.78,13.7-26.65c0.68-1.31,1.44-2.58,2.32-4.16c3.37,1.86,4.08,4.69,3.3,7.7
	c-0.8,3.11-2.04,6.17-3.56,9.01c-3.9,7.26-8.2,14.3-12.08,21.57c-3.88,7.27-9.9,10.59-17.95,10.74
	c-15.99,0.29-31.98,0.65-47.96,0.89c-6.05,0.09-11.55-1.49-16.18-5.72c-5.67-5.19-12.71-6.57-20.13-6.78
	c-7.85-0.23-15.76-0.09-23.53-1.05c-3.59-0.44-7.11-2.8-10.27-4.88c-1.67-1.1-2.49-3.48-3.69-5.28
	C192.34,398.9,192.72,398.35,193.09,397.8z"/>
<path d="M229.99,418.5c-1.51,1.04-3.09,2-4.53,3.13c-16.77,13.03-47.51,2.82-52.96-17.73c-3.4-12.85,0.18-24.04,9.54-33.18
	c9.2-8.98,20.32-11.12,32.57-7.68c5.02,1.41,6.27,5.91,2.71,9.75c-0.5,0.53-2.01,0.63-2.8,0.31c-12.99-5.3-25.92,0.59-30.54,13.99
	c-4.55,13.2,1.91,26.29,15.75,29.16c8.39,1.74,17.32,0.94,26.01,1.23c1.05,0.04,2.12-0.21,3.18-0.33
	C229.28,417.59,229.63,418.04,229.99,418.5z"/>
<path d="M480.54,294.26c-2.17,0-3.65,0-5.13,0c-1.36,0-2.72,0-4.64,0c0-2.51,0.01-4.72,0-6.92c-0.05-7.99,0.2-16-0.21-23.97
	c-0.74-14.36-8.94-23.59-22.1-27.59c-11.29-3.43-23.1-5.11-34.68-7.56c-0.24-0.05-0.5-0.05-0.74-0.08
	c-8.66-1.31-8.66-1.31-7.52-10.92c5.74,0.86,11.53,1.42,17.19,2.64c10.46,2.26,21.17,3.99,31.19,7.59
	c17.31,6.21,26.13,19.38,26.62,37.8C480.74,274.73,480.54,284.22,480.54,294.26z"/>
<path d="M201.47,390.85c1.39,0,2.71,0,4.04,0c28.85,0.05,57.7,0.1,86.55,0.16c1.25,0,2.5,0.01,3.73,0.18
	c5.41,0.75,7.4,3.1,7.31,8.51c-0.08,4.82-2.53,7.45-7.75,7.72c-5.23,0.28-10.5-0.05-15.73,0.3c-7.25,0.49-13.66-0.63-19.4-5.79
	c-2.21-1.99-6.18-2.73-9.38-2.8c-13.61-0.3-27.23-0.13-40.84-0.13C203.11,399.01,202.55,398.51,201.47,390.85z"/>
<path d="M168.68,220.61c0,2.62,0.25,5.11-0.12,7.5c-0.15,0.94-1.54,2.11-2.59,2.42c-5.63,1.62-11.42,2.74-16.98,4.56
	c-4.72,1.54-9.46,3.36-13.75,5.82c-10.3,5.91-15.03,15.4-15.59,26.98c-0.35,7.11-0.13,14.24-0.16,21.37c-0.01,1.47,0,2.94,0,4.71
	c-3.34,0-6.27,0-9.21,0c-0.14-0.18-0.43-0.38-0.43-0.57c0.21-10.6-0.42-21.31,0.87-31.78c2.06-16.73,12.64-27.43,27.96-33.17
	c8.84-3.31,18.19-5.28,27.32-7.82C166.66,220.45,167.43,220.61,168.68,220.61z"/>
<path d="M395.53,392.2c-1.59,0.43-3.08,0.63-4.4,1.23c-2.38,1.08-3.28-0.12-4.23-2.06c-8.85-18.02-17.77-36.01-26.67-54.01
	c-4.59-9.28-9.28-18.51-13.66-27.89c-0.85-1.83-1.11-4.4-0.55-6.31c0.84-2.89,3.8-3.23,5.93-1.06c0.68,0.7,1.24,1.57,1.67,2.46
	c13.75,28.53,27.49,57.07,41.21,85.62C395.1,390.72,395.23,391.32,395.53,392.2z"/>
<path d="M302.66,352.59c3.19,0.91,8.22,1.91,12.91,3.8c5.2,2.09,6.93,7.52,4.21,12.48c-2.57,4.7-5.41,9.15-11.94,9.25
	c-1.98,0.03-4.34,1.79-5.8,3.4c-2.07,2.28-4.06,2.49-6.16,0.78c-2.39-1.95-4.74-4.08-6.62-6.52c-3.59-4.66-5.79-10.04-2.8-15.66
	C289.36,354.66,294.95,353.2,302.66,352.59z"/>
<path d="M429.55,484.6c-3.46,0-6.16,0-9.14,0c0-10.21,0-20.25,0-31.06c6.51,0.29,12.97,0.19,19.33,0.97
	c5.03,0.61,8.09,3.74,8.31,7.37c0.28,4.57-2.21,7.48-6.21,9.28c-0.33,0.15-0.62,0.39-1.35,0.86c3.61,4.03,7.15,7.97,10.71,11.94
	c-5.3,2.06-10.02,1.03-13.58-2.86c-2.43-2.66-4.9-5.28-8.06-8.68C429.55,476.97,429.55,480.58,429.55,484.6z M429.58,467.05
	c3.06,0.36,5.95,0.54,7.85-2.13c0.55-0.78,0.54-3.03,0.07-3.28c-2.31-1.26-4.86-2.07-7.92-3.27
	C429.58,462.06,429.58,464.47,429.58,467.05z"/>
<path d="M396.54,471.9c0,2.28,0,3.88,0,6.11c5.2,0,10.28,0.16,15.34-0.06c3.17-0.14,4.56,1.06,3.81,4.05
	c-0.26,1.04-1.64,2.53-2.54,2.55c-7.48,0.2-14.98,0.06-22.46,0.14c-2.21,0.02-2.74-0.99-2.73-2.97c0.05-8.49,0.08-16.98-0.02-25.46
	c-0.03-2.33,0.9-3.05,3.09-3.03c7.24,0.07,14.48,0.1,21.72-0.01c2.58-0.04,3.09,1.15,3.11,3.43c0.02,2.37-0.68,3.38-3.19,3.31
	c-5.22-0.14-10.45-0.04-15.97-0.04c0,1.97,0,3.64,0,5.85c4.65,0,9.35,0,14.05,0c5.6,0,5.62,0.03,4.57,6.13
	C409.22,471.9,403.04,471.9,396.54,471.9z"/>
<path d="M252.93,355.15c-4.66-1.48-9.34-2.67-13.78-4.45c-5.3-2.13-10.4-4.79-15.59-7.2c-2.15-0.99-4.14-2.18-3.64-4.95
	c0.55-3.01,3.05-4.21,5.58-3.83c4.14,0.63,8.22,1.88,12.24,3.12c2.24,0.69,4.45,1.7,6.45,2.92c8.17,4.97,16.42,4.31,24.61,0.35
	c2.51-1.21,4.49-1.65,6.09,0.9c1.6,2.55,1.17,5.03-1.04,7.07c-0.71,0.66-1.61,1.28-2.53,1.51
	C265.33,352.14,259.31,353.58,252.93,355.15z"/>
<path d="M224.98,485.52c-9.42-0.03-16.35-6.93-16.36-16.29c0-9.2,7.17-16.26,16.48-16.21c9.71,0.04,16.78,6.93,16.77,16.32
	C241.86,478.71,234.72,485.55,224.98,485.52z M225.27,460.02c-5.64-0.07-9.57,3.69-9.63,9.2c-0.06,5.33,4.04,9.29,9.6,9.28
	c5.66-0.01,9.61-3.8,9.63-9.24C234.89,463.8,231.03,460.09,225.27,460.02z"/>
<path d="M188.18,485.51c-9.42-0.05-16.34-6.97-16.3-16.33c0.04-9.19,7.25-16.24,16.53-16.17c9.71,0.08,16.76,6.99,16.71,16.38
	C205.07,478.77,197.94,485.56,188.18,485.51z M188.36,478.51c5.68,0.05,9.68-3.69,9.76-9.11c0.07-5.5-3.72-9.27-9.45-9.38
	c-5.64-0.11-9.66,3.62-9.79,9.08C178.75,474.44,182.81,478.47,188.36,478.51z"/>
<path d="M335.35,485.51c-9.44,0.01-16.44-6.86-16.47-16.16c-0.03-9.23,7.08-16.32,16.36-16.33c9.72-0.01,16.85,6.83,16.87,16.2
	C352.14,478.63,345.07,485.5,335.35,485.51z M335.21,478.51c5.72,0.11,9.77-3.55,9.91-8.96c0.15-5.64-3.76-9.5-9.69-9.53
	c-5.62-0.04-9.53,3.77-9.55,9.3C325.86,474.5,329.83,478.41,335.21,478.51z"/>
<path d="M202.42,343.75c5.89,1.86,11.78,3.7,17.66,5.59c0.69,0.22,1.37,0.64,1.93,1.11c1.78,1.51,3.73,3.54,2.05,5.67
	c-1.1,1.39-3.81,2.23-5.71,2.09c-2.66-0.19-5.19-1.69-7.86-2.33c-9.49-2.28-18.33-0.55-26.57,4.56c-0.95,0.59-1.85,1.37-2.88,1.73
	c-2.54,0.89-4.75,0.18-6.18-2.11c-1.44-2.3-0.71-4.22,1.38-5.84c7.62-5.91,16.02-9.62,25.86-9.42
	C202.2,344.44,202.31,344.09,202.42,343.75z"/>
<path d="M144.47,453.97c2.09,0,4.05,0,6.39,0c0,3.8,0,7.61,0,11.41c0.27,0.14,0.54,0.27,0.81,0.41c2.07-2.32,4.45-4.43,6.16-6.99
	c3.12-4.66,7.17-6.19,13.11-4.47c-4.17,4.81-8.24,9.5-12.43,14.33c4.18,5.21,8.22,10.24,12.32,15.34
	c-5.54,1.77-7.91,1.13-11.09-2.84c-2.63-3.28-5.28-6.54-8.62-10.66c0,5.31,0,9.58,0,14.05c-2.4,0-4.35,0-6.65,0
	C144.47,474.53,144.47,464.49,144.47,453.97z"/>
<path d="M245.62,360.66c7.92-1.12,15.38-2.18,23.61-3.35c0.16,5.59,0.87,11.29,0.32,16.86c-0.52,5.28-7.93,9.87-13.4,9.09
	c-0.84-0.12-1.79-0.85-2.33-1.57C249.1,375.52,246.57,368.49,245.62,360.66z"/>
<path d="M274.04,454.14c-4.01,10.19-7.82,20.06-11.8,29.87c-0.88,2.16-6.33,2.32-7.2,0.2c-4.03-9.91-7.85-19.91-11.78-29.96
	c6.96-1.23,7.01-1.19,9.22,4.54c1.92,4.96,3.89,9.9,6.14,15.6c2.23-5.63,4.16-10.48,6.07-15.34
	C266.96,453.3,266.95,453.3,274.04,454.14z"/>
<path d="M368.13,474.39c2.21-5.58,4.14-10.43,6.04-15.29c2.24-5.74,2.23-5.74,8.8-5.05c0,0.43,0.13,0.93-0.02,1.32
	c-3.63,9.43-7.22,18.88-11.05,28.22c-0.39,0.95-2.24,1.78-3.43,1.8c-1.36,0.03-3.6-0.55-3.98-1.48c-4.06-9.77-7.83-19.65-11.7-29.57
	c6.72-1.45,6.97-1.29,9.29,4.73C363.98,463.95,365.92,468.8,368.13,474.39z"/>
<path d="M314.81,462.74c-5.94-2.04-11.34-5.21-16.15,0.34c-2.53,2.92-2.74,7.96-0.8,11.29c2.35,4.03,4.91,4.43,16.27,2.53
	c0.14,0.19,0.37,0.38,0.39,0.58c0.54,6.73,0.3,7.01-6.4,7.88c-7.24,0.94-13.42-2.12-16.62-8.23c-3.2-6.1-2.28-13.75,2.29-18.88
	c4.48-5.03,11.45-6.46,18.19-4.05C316.55,455.83,313.87,459.37,314.81,462.74z"/>
<path d="M336.33,370.46c-0.45,1.24-1.01,3.43-2,5.4c-4.47,8.92-9.05,17.79-13.6,26.68c-0.34,0.67-0.53,1.59-1.07,1.94
	c-1.33,0.84-2.84,1.41-4.27,2.08c-0.14-1.45-0.81-3.1-0.35-4.32c3.57-9.58,7.46-19.04,10.98-28.63c0.9-2.45,1.06-5.25,1.1-7.9
	c0.05-2.92,1.14-4.12,3.82-3.14C334.11,363.72,336.18,365.87,336.33,370.46z"/>
<path d="M393.53,344.77c8.04,0.38,15.29,2.8,21.66,7.56c1.14,0.86,1.5,2.76,2.23,4.18c-1.57,0.79-3.08,1.74-4.73,2.3
	c-0.67,0.22-1.69-0.29-2.44-0.69c-6.9-3.7-14.29-4.91-22.04-4.77c-1.98,0.04-4.27-0.54-5.91-1.62c-2.51-1.65-1.96-4.5,0.95-5.24
	C386.61,345.64,390.1,345.32,393.53,344.77z"/>
<path d="M358.23,421.93c-7.02,0-14.11,0.01-21.19-0.01c-0.83,0-1.65-0.17-2.61-0.28c4.15-7,8.17-13.79,12.04-20.31
	C350.32,408.07,354.14,414.77,358.23,421.93z"/>
<path d="M336.5,288.63c6.44-0.4,8.3,7.28,5.16,13.86c-1.99-2.42-3.86-4.69-5.27-6.41c-4.91,1.37-9.65,2.68-14.51,4.03
	c-1.02-3.18-0.6-4.48,2.03-4.71c1.47-0.13,2.95-0.54,4.34-1.04c4.1-1.48,4.38-3,1.87-6.45c-0.79-1.09-0.91-2.91-0.74-4.32
	c0.07-0.58,2-1.6,2.58-1.33c1.58,0.73,3.06,1.9,4.23,3.2C336.72,286.03,336.41,287.35,336.5,288.63z"/>
<path d="M375.37,315.51c0,0.63,0.14,1.65-0.03,2.62c-0.3,1.68,1.41,4.12-1.99,4.68c-2.88,0.48-5.27,0.94-6.39-2.8
	c-0.85-2.84-2.39-5.48-3.6-8.22c-0.3-0.68-0.86-1.49-0.71-2.09c0.89-3.56,4.13-3.25,6.67-3.41c1.97-0.13,5.12-1.77,5.66,2.13
	C375.3,310.63,375.25,312.89,375.37,315.51z"/>
<path d="M349.64,336.52c-0.55,1.61-0.8,2.57-1.19,3.47c-2.09,4.81-4.21,9.6-6.33,14.39c-0.99,2.25-2.42,4.13-5.12,2.85
	c-2.46-1.17-2.69-3.34-1.5-5.73c2.62-5.25,5.09-10.58,7.9-15.73c0.55-1.01,2.39-1.98,3.49-1.85
	C347.94,334.07,348.8,335.68,349.64,336.52z"/>
<path d="M223.23,382.73c-3.76-0.02-5.02-1.8-3.82-4.65c1.3-3.1,2.79-6.12,4.18-9.19c0.82-1.8,2.01-3.28,3.91-1.56
	c1.63,1.48,5.94,1.52,3.85,5.41c-1.58,2.95-3.61,5.68-5.64,8.35C225.04,381.99,223.75,382.41,223.23,382.73z"/>
<path d="M236.07,366.14c-3.25,0.06-6.6-2.54-6.73-5.22c-0.13-2.8,2.44-5.32,5.51-5.41c2.83-0.08,6.17,2.63,6.11,4.95
	C240.89,363.5,238.66,366.09,236.07,366.14z"/>
<path d="M177.54,348.21c-5.44,5.19-7.68,6-10.7,3.81c-1.11-0.8-1.56-2.51-2.31-3.8c1.23-0.61,2.5-1.81,3.68-1.72
	C171.08,346.7,173.91,347.5,177.54,348.21z"/>
<path d="M237.02,372.44c2.39,3.86,4.72,7.61,7.04,11.36c-0.17,0.35-0.34,0.71-0.51,1.06c-1.29-0.59-2.92-0.86-3.79-1.82
	C236.2,379.13,235.26,375.3,237.02,372.44z"/>
<path d="M243.38,421.97c-2.23,0-4.46,0-7.56,0c1.23-1.39,2.19-3.18,2.82-3.07c1.75,0.3,3.37,1.39,5.04,2.16
	C243.58,421.37,243.48,421.67,243.38,421.97z"/>
</svg>
